# xmcd
#
# Track frame offsets:
#	150
#	16730
#	30471
#	49068
#	64816
#	81118
#	97081
#	113472
#	127301
#	144162
#
# Disc length: 2153 seconds
#
# Revision: 0
# Processed by: cddbd v1.5.1PL0 Copyright (c) Steve Scherf et al.
# Submitted via: audiograbber 1.83.01
#
DISCID=7c08670a
DTITLE=McEntire, Reba - What If It's You - McEntire, Reba - What If It's You
DYEAR=1996
DGENRE=Country
TTITLE0=How Was I To Know
TTITLE1=The Fear Of Being Alone
TTITLE2=What If It's You
TTITLE3=I'd Rather Ride Around With You
TTITLE4=It Don't Matter
TTITLE5=State of Grace
TTITLE6=Close To Crazy
TTITLE7=She's Callin' It Love
TTITLE8=Just Looking For Him
TTITLE9=Never Had A Reason To
EXTD=
EXTT0=
EXTT1=
EXTT2=
EXTT3=
EXTT4=
EXTT5=
EXTT6=
EXTT7=
EXTT8=
EXTT9=
PLAYORDER=
